<svg xmlns="http://www.w3.org/2000/svg" viewBox="0 0 65.14 24.92">
<path d="M65,16.34a.76.76,0,0,0-.53-.21H61.09a.89.89,0,0,0-.62.19,1.54,1.54,0,0,0-.34.67,4.82,4.82,0,0,1-1.8,3,5.78,5.78,0,0,1-3.34.89c-3.27,0-5-1.85-5.11-5.54,0-.67,0-1.65,0-2.94s0-2.25,0-2.88a7.63,7.63,0,0,1,.69-3.14L48.11,2.1l-.43.37A9.64,9.64,0,0,0,44.9,9.38c0,.65,0,1.68,0,3.11s0,2.43,0,3a9.66,9.66,0,0,0,2.76,6.94q2.6,2.44,7.33,2.44a12.36,12.36,0,0,0,5.31-1.06A8.43,8.43,0,0,0,63.82,21a7.6,7.6,0,0,0,1.32-4.11.58.58,0,0,0-.19-.52"></path>
<path d="M55,4a5.78,5.78,0,0,1,3.36.89,4.92,4.92,0,0,1,1.78,3,1.44,1.44,0,0,0,.34.67.89.89,0,0,0,.62.19h3.33a.72.72,0,0,0,.49-.19.6.6,0,0,0,.23-.47V8.06A7.6,7.6,0,0,0,63.82,4,8.43,8.43,0,0,0,60.3,1.06,12.36,12.36,0,0,0,55,0a13.08,13.08,0,0,0-4.08.59L53,4.3A6.17,6.17,0,0,1,55,4"></path>
<path d="M9.19.35H8v4H9a5.82,5.82,0,0,1,4.22,1.33,5.88,5.88,0,0,1,1.4,4.17c0,1.34.07,2.2.07,2.56s0,1.22-.07,2.6a6.13,6.13,0,0,1-1.33,4.26,5.65,5.65,0,0,1-4.12,1.28H4.84V.35h-4a.78.78,0,0,0-.6.24A.87.87,0,0,0,0,1.21V23.74a.81.81,0,0,0,.24.59.78.78,0,0,0,.58.24H9.36c3.41,0,5.93-.76,7.56-2.3s2.5-3.91,2.59-7.14c0-1.34.07-2.23.07-2.67s0-1.36-.07-2.7Q19.31.34,9.19.35"></path>
<path d="M42.51,23.47l-5-8.83a6.7,6.7,0,0,0,3.36-2.47,7.24,7.24,0,0,0,1.2-4.24,6.85,6.85,0,0,0-2.38-5.61,10,10,0,0,0-6.6-2H31.4V4.22H33a4.43,4.43,0,0,1,3.09,1,3.51,3.51,0,0,1,1,2.72,3.38,3.38,0,0,1-1,2.68,4.48,4.48,0,0,1-3.09.92H28.25V.35h-4a.78.78,0,0,0-.6.24.87.87,0,0,0-.22.62V23.74a.82.82,0,0,0,.82.83h3.16a.84.84,0,0,0,.62-.24.81.81,0,0,0,.24-.59v-8.3H33l4.39,8.2a2.48,2.48,0,0,0,.54.67,1.28,1.28,0,0,0,.86.26H41.9a.71.71,0,0,0,.49-.2.7.7,0,0,0,.23-.52.82.82,0,0,0-.11-.38"></path>
</svg>