<?xml version="1.0" encoding="utf-8"?><!-- Uploaded to: SVG Repo, www.svgrepo.com, Generator: SVG Repo Mixer Tools -->
<svg width="800px" height="800px" viewBox="0 0 1024 1024" xmlns="http://www.w3.org/2000/svg"><path fill="#000000" d="M389.44 768a96.064 96.064 0 0 1 181.12 0H896v64H570.56a96.064 96.064 0 0 1-181.12 0H128v-64h261.44zm192-288a96.064 96.064 0 0 1 181.12 0H896v64H762.56a96.064 96.064 0 0 1-181.12 0H128v-64h453.44zm-320-288a96.064 96.064 0 0 1 181.12 0H896v64H442.56a96.064 96.064 0 0 1-181.12 0H128v-64h133.44z"/></svg>