<svg xmlns="http://www.w3.org/2000/svg" width="149.871" height="56.047" viewBox="0 0 149.871 56.047">
    <defs>
        <style>
            .cls-1{fill:#ff6720}
        </style>
    </defs>
    <g id="Group_4" transform="translate(-590.493 -214.662)">
        <g id="Group_2" transform="translate(590.493 214.662)">
            <path id="Path_1" d="M611.666 241.1h-6.491a11.756 11.756 0 0 1 0-23.512h6.491a1.463 1.463 0 0 0 0-2.925h-6.491a14.681 14.681 0 1 0 0 29.363h6.491a11.756 11.756 0 1 1 0 23.512h-6.491a1.463 1.463 0 0 0 0 2.925h6.491a14.681 14.681 0 1 0 0-29.363z" class="cls-1" transform="translate(-590.493 -214.662)"/>
            <path id="Path_2" d="M591.956 427.082h19.71a6.726 6.726 0 1 0 0-13.452h-19.71a1.463 1.463 0 0 0-1.463 1.463v10.526a1.463 1.463 0 0 0 1.463 1.463zm1.463-10.526h18.247a3.8 3.8 0 1 1 0 7.6h-18.248z" class="cls-1" transform="translate(-590.493 -379.237)"/>
            <path id="Path_3" d="M662.953 265.949h-23.217a3.806 3.806 0 0 1 3.507-2.338h19.71a1.463 1.463 0 0 0 0-2.925h-19.71a6.734 6.734 0 0 0-6.726 6.726 6.827 6.827 0 0 0 2.055 4.839 12.86 12.86 0 0 0 2.98 2.2 1.463 1.463 0 0 0 1.318-2.611 10.027 10.027 0 0 1-2.229-1.66 4.183 4.183 0 0 1-.894-1.308h23.206a1.463 1.463 0 0 0 0-2.925z" class="cls-1" transform="translate(-628.561 -252.73)"/>
            <circle id="Ellipse_1" cx="1.463" cy="1.463" r="1.463" class="cls-1" transform="translate(32.929)"/>
            <path id="Path_4" d="M743.574 217.587a1.463 1.463 0 0 0 0-2.925 1.463 1.463 0 1 0 0 2.925z" class="cls-1" transform="translate(-715.902 -214.662)"/>
            <path id="Path_5" d="M591.956 520.549a1.463 1.463 0 0 0-1.463 1.463 1.463 1.463 0 0 0 2.926 0 1.463 1.463 0 0 0-1.463-1.463z" class="cls-1" transform="translate(-590.493 -467.674)"/>
            <path id="Path_6" d="M629.6 520.549a1.463 1.463 0 0 0-1.463 1.463 1.463 1.463 0 0 0 2.926 0 1.463 1.463 0 0 0-1.463-1.463z" class="cls-1" transform="translate(-621.627 -467.674)"/>
        </g>
        <g id="Group_3" transform="translate(640.671 214.662)">
            <path id="Path_7" d="M896.623 221.4c0 .105 0 .22.01.345a1 1 0 0 1-.03.325v.2a.31.31 0 0 0-.01.138.215.215 0 0 1-.01.118 1.068 1.068 0 0 0-.02.207 1.068 1.068 0 0 1-.02.207 4.025 4.025 0 0 0-.079.582 2.137 2.137 0 0 1-.118.582q-.059.236-.128.483a4.265 4.265 0 0 1-.168.483 6.708 6.708 0 0 1-.839 1.529 4.583 4.583 0 0 1-1.253 1.154 4.782 4.782 0 0 1-.8.4q-.424.168-.917.326a2.074 2.074 0 0 1-.464.109 3.9 3.9 0 0 0-.483.089 2.363 2.363 0 0 1-.424.039 2.071 2.071 0 0 0-.4.039h-.276a.308.308 0 0 1-.138.01 1.278 1.278 0 0 0-.158-.01h-3.946a4.089 4.089 0 0 1-.523-.03.353.353 0 0 1-.306-.247.963.963 0 0 1-.069-.454q.01-.3.01-.533v-11.652q0-.237-.01-.5a.738.738 0 0 1 .089-.424.4.4 0 0 1 .3-.178.112.112 0 0 1 .079-.01.11.11 0 0 0 .079-.01h4.282a1.658 1.658 0 0 0 .187-.01.486.486 0 0 1 .168.01.365.365 0 0 0 .207.02.556.556 0 0 1 .207 0 1.1 1.1 0 0 0 .217.02 1.143 1.143 0 0 1 .217.02.943.943 0 0 0 .187.02.971.971 0 0 1 .187.02q.217.04.414.069a2.873 2.873 0 0 1 .395.089l.829.266a3.119 3.119 0 0 1 .73.345 5.488 5.488 0 0 1 .493.316c.039.026.079.056.118.089a1.4 1.4 0 0 0 .119.089q.118.1.217.2l.2.2a1.12 1.12 0 0 0 .158.138 1.853 1.853 0 0 0 .168.217 1.911 1.911 0 0 1 .168.217 1.5 1.5 0 0 1 .168.246 2.447 2.447 0 0 0 .168.266 1.145 1.145 0 0 1 .059.138 1.007 1.007 0 0 0 .059.138q.079.158.138.306t.138.306a3.507 3.507 0 0 1 .128.444c.032.151.069.3.108.444a.719.719 0 0 1 .039.227.714.714 0 0 0 .04.227 3.2 3.2 0 0 1 .108.779l.001.827zm-1.875 1.026a2.174 2.174 0 0 0 .039-.424v-.444q0-.158.01-.306a.831.831 0 0 0-.03-.286.715.715 0 0 0-.01-.118.836.836 0 0 1-.01-.138 3.221 3.221 0 0 1-.049-.434 2 2 0 0 0-.069-.434q-.04-.158-.069-.306c-.02-.1-.043-.2-.069-.306a5.164 5.164 0 0 0-.552-1.243 3.413 3.413 0 0 0-1.638-1.342 1.556 1.556 0 0 0-.375-.148c-.132-.033-.27-.069-.414-.108a2.043 2.043 0 0 0-.444-.069 3.249 3.249 0 0 1-.444-.049h-.414a.443.443 0 0 0-.138-.02h-2.565a.157.157 0 0 1-.1.01.162.162 0 0 0-.1.01c-.066.026-.128.053-.188.079a.252.252 0 0 0-.128.118 1.215 1.215 0 0 0-.079.276v.158a.738.738 0 0 0-.02.178v9.32a.692.692 0 0 0 .02.168v.158a1.206 1.206 0 0 0 .079.276.642.642 0 0 0 .592.227q.434-.01.829-.01h1.144c.092 0 .191 0 .3.01a.719.719 0 0 0 .276-.03h.217a.784.784 0 0 1 .217-.01.946.946 0 0 0 .237-.01 1.024 1.024 0 0 1 .237-.049 1.326 1.326 0 0 0 .257-.049q.217-.059.424-.118a3.012 3.012 0 0 0 .424-.158 3.825 3.825 0 0 0 1.253-.858 4.483 4.483 0 0 0 .858-1.292 3.238 3.238 0 0 0 .168-.464q.069-.247.148-.5a3.172 3.172 0 0 0 .089-.464q.03-.247.069-.484a.891.891 0 0 0 .02-.168z" transform="translate(-884.311 -214.694)"/>
            <path id="Path_8" d="M975.216 227.749q.039.1.1.237a1.447 1.447 0 0 1 .089.286.646.646 0 0 1 0 .276.264.264 0 0 1-.168.187.633.633 0 0 1-.237.039h-.858a1 1 0 0 1-.483-.1.686.686 0 0 1-.286-.414 5.5 5.5 0 0 0-.187-.533q-.217-.513-.395-1.066t-.395-1.085c-.039-.118-.076-.23-.108-.336a2.041 2.041 0 0 0-.118-.3.736.736 0 0 0-.187-.237.891.891 0 0 0-.316-.158.508.508 0 0 0-.227-.03q-.129.01-.266.01h-3.729q-.177 0-.395-.01a2.886 2.886 0 0 0-.414.01 2.813 2.813 0 0 0-.365.059.388.388 0 0 0-.247.158 1.229 1.229 0 0 0-.227.444q-.07.247-.168.5-.2.454-.365.947t-.365.947l-.089.266q-.049.148-.109.306a2.3 2.3 0 0 1-.128.286.571.571 0 0 1-.148.187.737.737 0 0 1-.424.128c-.178.007-.365.01-.562.01-.105 0-.207 0-.306-.01a.429.429 0 0 1-.247-.089.216.216 0 0 1-.109-.178.787.787 0 0 1 .02-.247 1.92 1.92 0 0 1 .079-.256 1 1 0 0 1 .089-.188q.276-.631.493-1.253t.473-1.253q.178-.434.335-.858t.336-.858q.592-1.421 1.125-2.871t1.125-2.891q.217-.513.4-1.046t.4-1.046a4.923 4.923 0 0 0 .188-.484.712.712 0 0 1 .266-.385.522.522 0 0 1 .257-.118.135.135 0 0 1 .089-.01.133.133 0 0 0 .089-.01q.355 0 .829-.01a1.15 1.15 0 0 1 .691.148.77.77 0 0 1 .247.385 4.923 4.923 0 0 0 .187.484q.2.454.355.908t.355.908q.157.395.306.809t.326.809q.592 1.441 1.135 2.91t1.154 2.91a3.222 3.222 0 0 1 .128.335c.033.105.069.217.109.335q.217.513.424 1.046t.429 1.06zm-4.222-4.795a.33.33 0 0 0 .227-.2.592.592 0 0 0 .02-.306 1.633 1.633 0 0 0-.1-.335c-.046-.112-.089-.207-.128-.286a.317.317 0 0 1-.039-.138.319.319 0 0 0-.039-.138q-.06-.158-.109-.326a2.878 2.878 0 0 0-.128-.345q-.3-.71-.523-1.45t-.523-1.45a3.818 3.818 0 0 1-.168-.434 2.91 2.91 0 0 0-.168-.414 1.722 1.722 0 0 0-.089-.187.216.216 0 0 0-.207-.089.313.313 0 0 1-.079.059.3.3 0 0 0-.079.059.728.728 0 0 0-.118.207c-.027.073-.053.148-.079.227a2.861 2.861 0 0 0-.158.434 2.861 2.861 0 0 1-.158.434 15.362 15.362 0 0 0-.582 1.559q-.247.789-.562 1.539c-.026.066-.049.132-.069.2s-.043.132-.069.2l-.118.316a2.882 2.882 0 0 0-.1.316.468.468 0 0 0-.03.217.537.537 0 0 0 .049.2.472.472 0 0 0 .414.168q.315.01.592.01h2.111q.217 0 .533.01a1.305 1.305 0 0 0 .476-.057z" transform="translate(-948.599 -214.706)"/>
            <path id="Path_9" d="M1042.779 214.662h10.142a.668.668 0 0 1 .335.079.386.386 0 0 1 .188.267 2.508 2.508 0 0 1 .03.424v.237q-.04.158-.069.257a.363.363 0 0 1-.128.178.816.816 0 0 1-.434.1h-2.782c-.145 0-.286 0-.424-.01a1.7 1.7 0 0 0-.375.02.657.657 0 0 0-.286.118.529.529 0 0 0-.178.267 1.187 1.187 0 0 0-.039.454q.019.276.02.493v10.24a4.312 4.312 0 0 1-.03.533.406.406 0 0 1-.227.335.78.78 0 0 1-.237.049c-.092.007-.191.01-.3.01h-.543a.446.446 0 0 1-.385-.138.654.654 0 0 1-.128-.375q-.01-.217-.01-.474v-10.2q0-.217.01-.5a1.36 1.36 0 0 0-.05-.464.45.45 0 0 0-.444-.335q-.346-.02-.74-.02h-2.171c-.157 0-.339 0-.542.01a1.268 1.268 0 0 1-.464-.049l-.118-.079a.35.35 0 0 1-.1-.1.532.532 0 0 1-.079-.257 2.082 2.082 0 0 1-.01-.355 1.769 1.769 0 0 1 .049-.335.484.484 0 0 1 .1-.217.241.241 0 0 1 .109-.089.968.968 0 0 1 .148-.049.113.113 0 0 1 .079-.01.109.109 0 0 0 .083-.015z" transform="translate(-1014.307 -214.662)"/>
            <path id="Path_10" d="M1126.114 227.749q.039.1.1.237a1.455 1.455 0 0 1 .089.286.654.654 0 0 1 0 .276.265.265 0 0 1-.168.187.633.633 0 0 1-.237.039h-.858a1 1 0 0 1-.483-.1.685.685 0 0 1-.286-.414 5.5 5.5 0 0 0-.187-.533q-.217-.513-.395-1.066t-.395-1.085c-.04-.118-.076-.23-.109-.336a2.028 2.028 0 0 0-.119-.3.734.734 0 0 0-.187-.237.89.89 0 0 0-.316-.158.507.507 0 0 0-.227-.03c-.086.007-.175.01-.266.01h-3.729q-.178 0-.395-.01a2.887 2.887 0 0 0-.414.01 2.809 2.809 0 0 0-.365.059.387.387 0 0 0-.247.158 1.227 1.227 0 0 0-.227.444q-.069.247-.168.5-.2.454-.365.947t-.365.947l-.089.266c-.033.098-.069.2-.109.306a2.268 2.268 0 0 1-.128.286.566.566 0 0 1-.148.187.737.737 0 0 1-.424.128c-.178.007-.365.01-.563.01-.105 0-.207 0-.306-.01a.428.428 0 0 1-.247-.089.216.216 0 0 1-.109-.178.79.79 0 0 1 .02-.247 1.9 1.9 0 0 1 .079-.256 1 1 0 0 1 .089-.188q.276-.631.493-1.253t.474-1.253q.177-.434.335-.858t.335-.858q.592-1.421 1.125-2.871t1.125-2.891q.217-.513.4-1.046t.4-1.046a4.986 4.986 0 0 0 .187-.484.712.712 0 0 1 .266-.385.52.52 0 0 1 .256-.118.135.135 0 0 1 .089-.01.133.133 0 0 0 .089-.01q.355 0 .829-.01a1.149 1.149 0 0 1 .69.148.769.769 0 0 1 .247.385 4.834 4.834 0 0 0 .187.484q.2.454.355.908t.355.908q.158.395.306.809t.326.809q.592 1.441 1.134 2.91t1.154 2.91a3.166 3.166 0 0 1 .128.335q.049.158.109.335.217.513.425 1.046t.435 1.06zm-4.222-4.795a.331.331 0 0 0 .227-.2.6.6 0 0 0 .02-.306 1.648 1.648 0 0 0-.1-.335c-.046-.112-.089-.207-.128-.286a.311.311 0 0 1-.04-.138.319.319 0 0 0-.04-.138q-.059-.158-.108-.326a2.834 2.834 0 0 0-.128-.345q-.3-.71-.523-1.45t-.523-1.45a3.8 3.8 0 0 1-.168-.434 2.9 2.9 0 0 0-.168-.414 1.746 1.746 0 0 0-.089-.187.217.217 0 0 0-.207-.089.32.32 0 0 1-.079.059.3.3 0 0 0-.079.059.735.735 0 0 0-.118.207q-.04.109-.079.227a2.888 2.888 0 0 0-.158.434 2.834 2.834 0 0 1-.158.434 15.275 15.275 0 0 0-.582 1.559q-.247.789-.562 1.539c-.027.066-.05.132-.069.2s-.043.132-.069.2l-.118.316a3.024 3.024 0 0 0-.1.316.472.472 0 0 0-.029.217.53.53 0 0 0 .049.2.472.472 0 0 0 .414.168q.315.01.592.01h2.111q.217 0 .533.01a1.306 1.306 0 0 0 .476-.057z" transform="translate(-1073.413 -214.706)"/>
            <path id="Path_11" d="M885.614 335.175h8.119a.584.584 0 0 1 .326.079.4.4 0 0 1 .187.286 2.9 2.9 0 0 1 .03.444 1.639 1.639 0 0 0 .01.188.3.3 0 0 1-.03.168.4.4 0 0 1-.345.345 6.152 6.152 0 0 1-.661.03h-4.95q-.316 0-.671-.01a.822.822 0 0 0-.533.128.482.482 0 0 0-.187.414q-.01.3-.01.592v1.953c0 .105 0 .237-.01.395a1.4 1.4 0 0 0 .03.394v.158c.026.079.049.155.069.227a.272.272 0 0 0 .129.168.964.964 0 0 0 .552.109q.374-.01.651-.01h3.551q.178 0 .385-.01t.414 0a2.108 2.108 0 0 1 .375.049.342.342 0 0 1 .227.138.448.448 0 0 1 .1.3v.612a.391.391 0 0 1-.04.178c-.053.132-.125.2-.217.217a.331.331 0 0 1-.148.039.911.911 0 0 0-.168.02.463.463 0 0 1-.168.01 1.532 1.532 0 0 0-.168-.01h-4.025q-.316 0-.74-.01a.967.967 0 0 0-.6.128.479.479 0 0 0-.148.247 1.624 1.624 0 0 0-.059.385q-.01.217 0 .444t.01.4v3.394q0 .336.02.73a.864.864 0 0 1-.138.592.233.233 0 0 1-.178.089 1.037 1.037 0 0 0-.237.049h-.375q-.276 0-.513-.02a.392.392 0 0 1-.336-.2.58.58 0 0 1-.079-.326V336.3q0-.217-.01-.483a.738.738 0 0 1 .089-.424.581.581 0 0 1 .3-.2.136.136 0 0 1 .089-.01.132.132 0 0 0 .081-.008z" transform="translate(-884.312 -314.343)"/>
            <path id="Path_12" d="M967.336 348.574a.311.311 0 0 1-.079.395.543.543 0 0 1-.247.069c-.1.007-.2.01-.306.01h-.631a.785.785 0 0 1-.493-.138.47.47 0 0 1-.207-.306q-.049-.207-.089-.424a.6.6 0 0 1-.02-.148v-.132a.286.286 0 0 1-.02-.178.323.323 0 0 0 0-.158 1.448 1.448 0 0 1-.019-.237v-.237l-.059-.888a.989.989 0 0 1-.04-.276 1.24 1.24 0 0 0-.039-.3 5.388 5.388 0 0 1-.148-.71 2.552 2.552 0 0 0-.187-.671 1.961 1.961 0 0 0-1.243-1.105 1.715 1.715 0 0 0-.562-.108q-.306-.01-.641-.01h-3.63l-.247.069a.359.359 0 0 0-.187.128 1.1 1.1 0 0 0-.128.641q.01.444.01.779v2.861q0 .276.02.681a1.266 1.266 0 0 1-.079.6.242.242 0 0 1-.158.178.329.329 0 0 1-.148.039.467.467 0 0 0-.168.04.515.515 0 0 1-.177.01c-.066-.006-.132-.01-.2-.01-.145 0-.286 0-.424-.01a.628.628 0 0 1-.345-.108.4.4 0 0 1-.158-.365v-12.51q0-.217-.01-.454a.507.507 0 0 1 .385-.572.113.113 0 0 1 .079-.01.11.11 0 0 0 .079-.01h5.722c.092 0 .191 0 .3-.01a1.266 1.266 0 0 1 .276.01h.217q.118.02.237.03t.256.03a2.522 2.522 0 0 0 .326.059 2.637 2.637 0 0 1 .326.059 6.964 6.964 0 0 1 .691.257 3.3 3.3 0 0 1 .592.335 2.79 2.79 0 0 1 .8.819 4.636 4.636 0 0 1 .5 1.134 1.8 1.8 0 0 1 .049.326 1.75 1.75 0 0 0 .05.325v.2a.865.865 0 0 1 .01.227 2.011 2.011 0 0 1-.03.227v.217a1.716 1.716 0 0 0-.049.3 1.375 1.375 0 0 1-.05.276l-.187.562a2.112 2.112 0 0 1-.247.5 1.239 1.239 0 0 1-.128.178 1.218 1.218 0 0 0-.128.178.15.15 0 0 1-.039.03.164.164 0 0 0-.039.03c-.027.026-.056.059-.089.1s-.063.073-.089.1q-.158.118-.3.227a3.367 3.367 0 0 1-.3.207 1.224 1.224 0 0 0-.178.128.3.3 0 0 0-.1.188.192.192 0 0 0 .089.2 1.378 1.378 0 0 0 .188.118 3.828 3.828 0 0 1 .4.3 1.633 1.633 0 0 1 .326.375 1.8 1.8 0 0 1 .316.621q.1.345.2.74l.039.306.039.306a.662.662 0 0 1 .02.276.655.655 0 0 0 .02.276v.178a.743.743 0 0 1 .02.3.852.852 0 0 0 .02.316.388.388 0 0 1 .01.148.5.5 0 0 0 .01.168 4.028 4.028 0 0 1 .059.4 1.724 1.724 0 0 0 .079.385 1.025 1.025 0 0 1 .049.227 1 1 0 0 0 .05.227zm-2.387-8.188a1.769 1.769 0 0 0 .207-.454q.069-.237.128-.513v-.178a1.823 1.823 0 0 0 .02-.6 2.527 2.527 0 0 0-.119-.543 2.075 2.075 0 0 0-1.243-1.361 2.747 2.747 0 0 0-.918-.178q-.523-.019-1.075-.02h-3.256a.193.193 0 0 1-.089.02.351.351 0 0 0-.109.02.426.426 0 0 0-.316.257 1.153 1.153 0 0 0-.069.493q.01.316.01.572v2.269q0 .3-.01.621a.764.764 0 0 0 .128.5.421.421 0 0 0 .3.168 2.936 2.936 0 0 0 .434.03h1.223q.769 0 1.5.01a8.725 8.725 0 0 0 1.352-.079 3.812 3.812 0 0 0 1.115-.326 1.87 1.87 0 0 0 .786-.709z" transform="translate(-943.225 -314.187)"/>
            <path id="Path_13" d="M1041.307 335.333c.092 0 .2 0 .316-.01a3.041 3.041 0 0 1 .345 0 1.445 1.445 0 0 1 .306.049.367.367 0 0 1 .2.118.614.614 0 0 1 .128.385q.01.247.01.5v12.385a.841.841 0 0 1-.1.444.306.306 0 0 1-.188.118c-.072.013-.161.033-.266.059h-.375q-.277 0-.513-.02a.393.393 0 0 1-.336-.2.582.582 0 0 1-.079-.326v-12.377q0-.217-.01-.483a.739.739 0 0 1 .089-.424.473.473 0 0 1 .316-.2.113.113 0 0 1 .079-.01.11.11 0 0 0 .078-.008z" transform="translate(-1013.092 -314.462)"/>
            <path id="Path_14" d="M1076.037 335.124h8.149c.145 0 .289 0 .434-.01a.554.554 0 0 1 .355.089.358.358 0 0 1 .1.1l.079.118a1.776 1.776 0 0 1 .04.444 2.04 2.04 0 0 1-.04.464.378.378 0 0 1-.335.306 5.433 5.433 0 0 1-.612.03h-5.288q-.316 0-.74-.01a1.194 1.194 0 0 0-.622.109.462.462 0 0 0-.207.414q-.01.3-.01.612v2.01q0 .217-.01.513a1.937 1.937 0 0 0 .03.473.433.433 0 0 0 .237.316 1.2 1.2 0 0 0 .276.079h.2a.464.464 0 0 0 .168.01 1.743 1.743 0 0 1 .187-.01h4.538q.178 0 .395-.01t.444 0a3.746 3.746 0 0 1 .414.039.817.817 0 0 1 .286.089.316.316 0 0 1 .1.177 1.969 1.969 0 0 1 .059.3 1.788 1.788 0 0 1 .01.326 1.136 1.136 0 0 1-.049.286.372.372 0 0 1-.177.257.186.186 0 0 1-.109.049.8.8 0 0 0-.128.03h-.118a.654.654 0 0 1-.2.01q-.1-.01-.2-.01h-4.893q-.237 0-.464-.01a2.216 2.216 0 0 0-.424.02 1.071 1.071 0 0 0-.345.108.437.437 0 0 0-.207.276.718.718 0 0 0-.03.276q.01.158.01.316v2.979q0 .277.02.5a.418.418 0 0 0 .158.326.584.584 0 0 0 .315.108c.119.007.25.01.395.01h6.038c.1 0 .21 0 .316-.01a.733.733 0 0 1 .276.03.543.543 0 0 1 .316.217.5.5 0 0 1 .059.2q.02.138.03.286a1.483 1.483 0 0 1-.01.3c-.013.1-.027.175-.039.227a.51.51 0 0 1-.177.217.542.542 0 0 1-.306.079h-8.376a3.226 3.226 0 0 1-.474-.03.4.4 0 0 1-.3-.187.54.54 0 0 1-.079-.306v-13.038a.431.431 0 0 1 .079-.276.458.458 0 0 1 .3-.2.112.112 0 0 1 .079-.01.109.109 0 0 0 .077-.008z" transform="translate(-1041.843 -314.293)"/>
            <path id="Path_15" d="M1151.506 335.126q.355 0 .789-.01a1.065 1.065 0 0 1 .651.148 1.216 1.216 0 0 1 .3.345q.138.227.257.4.256.395.523.8t.523.819q.138.217.286.424c.1.138.194.28.286.424q.592.947 1.2 1.884t1.223 1.884a4.725 4.725 0 0 0 .345.523 4.895 4.895 0 0 1 .345.523q.335.533.681 1.056t.681 1.036q.1.158.247.385a.429.429 0 0 0 .365.227c.066-.026.1-.046.1-.059a.51.51 0 0 0 .1-.335v-9.195a2.44 2.44 0 0 0-.02-.3.728.728 0 0 1 .02-.3v-.205a.486.486 0 0 0 .049-.158.313.313 0 0 1 .05-.138.441.441 0 0 1 .355-.168q.237-.01.513-.01h.247a.61.61 0 0 1 .227.04.406.406 0 0 1 .266.345 4.955 4.955 0 0 1 .03.582v12.1c0 .145 0 .289.01.434a.476.476 0 0 1-.089.335.334.334 0 0 1-.187.148q-.109.03-.266.069h-1a.9.9 0 0 1-.4-.079.488.488 0 0 1-.247-.2q-.089-.138-.188-.276-.158-.237-.325-.493t-.325-.513q-.71-1.066-1.4-2.111t-1.381-2.131q-.375-.592-.76-1.164t-.76-1.164q-.651-1.026-1.362-2.072c-.052-.092-.105-.181-.158-.266a.792.792 0 0 0-.217-.227.3.3 0 0 1-.079-.059.09.09 0 0 0-.1-.02.189.189 0 0 0-.138.158 1.6 1.6 0 0 1-.06.237v.138a.772.772 0 0 0-.02.306 2.861 2.861 0 0 1 .02.325v8.5q0 .1.01.237a.54.54 0 0 1-.03.237v.158a1.23 1.23 0 0 1-.079.276.207.207 0 0 1-.138.128l-.217.069h-.394q-.277 0-.493-.02a.388.388 0 0 1-.316-.178.494.494 0 0 1-.1-.326v-12.9a.8.8 0 0 1 .1-.424.508.508 0 0 1 .237-.177.187.187 0 0 1 .109-.01.183.183 0 0 0 .104-.012z" transform="translate(-1104.251 -314.294)"/>
            <path id="Path_16" d="M1250.581 341.8c0 .105 0 .22.01.345a1.011 1.011 0 0 1-.029.326v.2a.305.305 0 0 0-.01.138.215.215 0 0 1-.01.118 1.047 1.047 0 0 0-.02.207 1.071 1.071 0 0 1-.02.207 4.022 4.022 0 0 0-.079.582 2.128 2.128 0 0 1-.118.582q-.059.237-.128.483a4.261 4.261 0 0 1-.168.483 6.716 6.716 0 0 1-.839 1.529 4.582 4.582 0 0 1-1.253 1.154 4.767 4.767 0 0 1-.8.4q-.424.168-.917.326a2.081 2.081 0 0 1-.464.108 3.924 3.924 0 0 0-.483.089 2.364 2.364 0 0 1-.424.04 2.053 2.053 0 0 0-.4.039h-.276a.31.31 0 0 1-.138.01 1.27 1.27 0 0 0-.158-.01h-3.946a4.052 4.052 0 0 1-.523-.03.352.352 0 0 1-.306-.246.962.962 0 0 1-.069-.454q.01-.3.01-.533v-11.655q0-.237-.01-.5a.741.741 0 0 1 .089-.424.4.4 0 0 1 .3-.177.112.112 0 0 1 .079-.01.109.109 0 0 0 .079-.01h4.282a1.649 1.649 0 0 0 .187-.01.481.481 0 0 1 .168.01.367.367 0 0 0 .207.02.555.555 0 0 1 .207 0 1.112 1.112 0 0 0 .217.02 1.122 1.122 0 0 1 .217.02.941.941 0 0 0 .187.02.971.971 0 0 1 .188.02q.217.04.414.069a2.861 2.861 0 0 1 .395.089l.829.266a3.118 3.118 0 0 1 .73.345 5.433 5.433 0 0 1 .493.316 1.411 1.411 0 0 1 .118.089 1.352 1.352 0 0 0 .119.089c.079.066.151.132.217.2l.2.2a1.159 1.159 0 0 0 .158.138 1.881 1.881 0 0 0 .168.217 1.9 1.9 0 0 1 .168.217 1.5 1.5 0 0 1 .168.247 2.428 2.428 0 0 0 .168.266 1.127 1.127 0 0 1 .059.138 1.041 1.041 0 0 0 .059.138c.052.106.1.207.138.306s.085.2.138.306a3.5 3.5 0 0 1 .128.444c.032.151.069.3.109.444a.723.723 0 0 1 .039.227.716.716 0 0 0 .04.227 3.2 3.2 0 0 1 .109.779q-.003.414-.003.826zm-1.875 1.026a2.173 2.173 0 0 0 .04-.424v-.444c0-.105 0-.207.01-.306a.842.842 0 0 0-.029-.286.744.744 0 0 0-.01-.118.823.823 0 0 1-.01-.138 3.2 3.2 0 0 1-.049-.434 2 2 0 0 0-.069-.434q-.04-.158-.069-.306c-.02-.1-.043-.2-.069-.306a5.163 5.163 0 0 0-.552-1.243 3.413 3.413 0 0 0-1.638-1.342 1.544 1.544 0 0 0-.375-.148q-.2-.049-.414-.109a2.047 2.047 0 0 0-.444-.069 3.233 3.233 0 0 1-.444-.049h-.414a.445.445 0 0 0-.138-.02h-2.565a.159.159 0 0 1-.1.01.162.162 0 0 0-.1.01c-.066.026-.128.053-.187.079a.251.251 0 0 0-.128.118 1.2 1.2 0 0 0-.079.276v.158a.725.725 0 0 0-.02.177v9.322a.681.681 0 0 0 .02.168v.158a1.186 1.186 0 0 0 .079.276.641.641 0 0 0 .592.227q.434-.01.829-.01h1.144q.138 0 .3.01a.723.723 0 0 0 .276-.03h.217a.783.783 0 0 1 .217-.01.932.932 0 0 0 .237-.01 1.033 1.033 0 0 1 .237-.049 1.338 1.338 0 0 0 .257-.049l.424-.118a3.05 3.05 0 0 0 .424-.158 3.823 3.823 0 0 0 1.253-.858 4.485 4.485 0 0 0 .858-1.292 3.207 3.207 0 0 0 .168-.464q.069-.246.148-.5a3.241 3.241 0 0 0 .089-.464q.029-.246.069-.483a.889.889 0 0 0 .02-.168z" transform="translate(-1177.084 -314.281)"/>
            <path id="Path_17" d="M1325.8 335.105c.092 0 .2 0 .316-.01a3.029 3.029 0 0 1 .345 0 1.449 1.449 0 0 1 .306.049.365.365 0 0 1 .2.118.673.673 0 0 1 .118.414V346.9a1.206 1.206 0 0 0 .059.414.528.528 0 0 0 .217.237.832.832 0 0 0 .256.049c.105.007.21.01.316.01h5.663c.092 0 .188 0 .286-.01a.7.7 0 0 1 .266.03.556.556 0 0 1 .335.217 1.267 1.267 0 0 1 .04.2q.019.138.029.286a1.52 1.52 0 0 1-.01.3c-.013.1-.027.175-.04.227a.361.361 0 0 1-.177.217.45.45 0 0 1-.286.079h-7.939a3.221 3.221 0 0 1-.473-.03.4.4 0 0 1-.3-.187.54.54 0 0 1-.079-.306v-12.679c0-.118 0-.237.01-.355a.609.609 0 0 1 .069-.276.581.581 0 0 1 .3-.2.135.135 0 0 1 .089-.01.132.132 0 0 0 .084-.008z" transform="translate(-1248.42 -314.273)"/>
            <path id="Path_18" d="M1387.913 335.066q.3 0 .73-.02a1.486 1.486 0 0 1 .651.079.687.687 0 0 1 .247.2c.059.079.121.165.187.257l.237.394q.118.2.256.395.552.868 1.1 1.717t1.075 1.717q.2.316.385.612t.385.592q.079.138.168.266a.408.408 0 0 0 .247.168.262.262 0 0 0 .266-.069.8.8 0 0 0 .148-.187 6.5 6.5 0 0 0 .365-.572q.167-.3.345-.572.533-.848 1.046-1.7t1.046-1.677l.306-.5q.149-.244.306-.483c.052-.092.105-.178.158-.257a1.019 1.019 0 0 1 .2-.217.805.805 0 0 1 .5-.138h.661q.157 0 .315.01a.447.447 0 0 1 .256.089.222.222 0 0 1 .069.286 1.118 1.118 0 0 1-.128.267q-.158.236-.3.464t-.3.444a3.2 3.2 0 0 0-.177.276q-.079.138-.177.3-.691 1.006-1.342 2.032t-1.3 2.072q-.218.316-.414.622l-.415.641q-.138.217-.266.4a2.026 2.026 0 0 0-.227.464.831.831 0 0 0-.04.266v3.917a2.975 2.975 0 0 0 .02.335.948.948 0 0 1-.02.336v.335a.551.551 0 0 1-.276.454.159.159 0 0 1-.118.03.349.349 0 0 0-.138.01.464.464 0 0 1-.168.01 1.7 1.7 0 0 0-.187-.01h-.473a.383.383 0 0 1-.335-.138.476.476 0 0 1-.108-.266 3.513 3.513 0 0 1-.04-.395q-.01-.207 0-.424t.01-.395v-3.5a.7.7 0 0 0-.02-.168v-.257a2.125 2.125 0 0 0-.247-.562q-.148-.227-.306-.484l-.769-1.184q-.672-1.006-1.3-2t-1.3-2q-.257-.394-.5-.76t-.5-.76a1.141 1.141 0 0 1-.2-.375c-.027-.092-.02-.158.02-.2a.137.137 0 0 1 .108-.118 1.177 1.177 0 0 0 .188-.059.167.167 0 0 1 .049.01.044.044 0 0 0 .041-.02z" transform="translate(-1299.894 -314.234)"/>
            <path id="Path_19" d="M886.024 453.834a7.21 7.21 0 0 1 1.993.178 5.084 5.084 0 0 1 1.539.651q.118.079.227.138a.924.924 0 0 1 .207.158.709.709 0 0 0 .079.069.766.766 0 0 1 .079.069 1.3 1.3 0 0 0 .1.089.522.522 0 0 1 .1.109l.158.2.158.2a1 1 0 0 1 .128.207 2.039 2.039 0 0 0 .109.207 2.324 2.324 0 0 1 .276.621q.1.345.2.72a1.168 1.168 0 0 1 .03.345.63.63 0 0 1-.069.286.41.41 0 0 1-.316.158q-.217.02-.454.02h-.178a.641.641 0 0 1-.158-.02.891.891 0 0 0-.168-.02.33.33 0 0 1-.148-.039.479.479 0 0 1-.079-.049.692.692 0 0 1-.079-.069 1.168 1.168 0 0 1-.168-.434 1.765 1.765 0 0 0-.148-.454 2.545 2.545 0 0 0-.947-1.184 3.285 3.285 0 0 0-1.085-.473 1.033 1.033 0 0 0-.237-.049 1 1 0 0 1-.237-.049h-.158a1.3 1.3 0 0 0-.316-.04h-.316a4.127 4.127 0 0 0-1.716.316 2.572 2.572 0 0 0-.71.424 1.654 1.654 0 0 0-.474.661 1.194 1.194 0 0 0-.109.326q-.03.168-.069.365a1.206 1.206 0 0 0-.03.355 1.492 1.492 0 0 0 .049.335 1.874 1.874 0 0 0 .345.691 2.294 2.294 0 0 0 .582.454 3.346 3.346 0 0 0 .967.414q.533.138 1.1.3a3.175 3.175 0 0 0 .355.059 1.737 1.737 0 0 1 .355.079 4.947 4.947 0 0 0 .582.128 3.308 3.308 0 0 1 .582.148c.052.013.1.023.138.03s.085.017.138.03q.178.04.355.089t.355.108q.394.138.77.3a4.617 4.617 0 0 1 .71.375 4.106 4.106 0 0 1 .779.641 3 3 0 0 1 .562.858 1.916 1.916 0 0 1 .118.355c.026.118.052.244.079.375a.608.608 0 0 1 .039.227.766.766 0 0 0 .04.247v.395a.64.64 0 0 0-.02.158v.158a1.749 1.749 0 0 0-.049.326 1.113 1.113 0 0 1-.069.326q-.1.3-.217.572a2.471 2.471 0 0 1-.3.513 3.136 3.136 0 0 1-.848.868 7.531 7.531 0 0 1-1.1.631q-.2.079-.385.138t-.4.118a2.1 2.1 0 0 1-.454.109 4.009 4.009 0 0 0-.473.089 1.065 1.065 0 0 1-.207.02 1.037 1.037 0 0 0-.207.02c-.079 0-.158 0-.237.01s-.158.01-.237.01a2.074 2.074 0 0 1-.572 0h-.217a2.011 2.011 0 0 0-.395-.039 1.729 1.729 0 0 1-.375-.039 1.267 1.267 0 0 0-.158-.03c-.053-.007-.112-.017-.178-.03q-.217-.039-.4-.079a2.35 2.35 0 0 1-.385-.118 5.611 5.611 0 0 1-1.628-.809 4.387 4.387 0 0 1-1.134-1.282 3.3 3.3 0 0 1-.266-.533q-.109-.276-.207-.592a1 1 0 0 1-.049-.237.755.755 0 0 0-.049-.217 1.869 1.869 0 0 1-.039-.4.448.448 0 0 1 .1-.326.421.421 0 0 1 .326-.158c.151-.013.3-.02.444-.02h.168a.481.481 0 0 1 .148.02.45.45 0 0 0 .158.01.231.231 0 0 1 .138.03.433.433 0 0 1 .178.158.487.487 0 0 1 .069.207.989.989 0 0 0 .049.227c.026.092.049.184.069.276a1.482 1.482 0 0 0 .089.276 2.976 2.976 0 0 0 1.006 1.342 3.075 3.075 0 0 0 .73.414q.394.158.848.3a2.561 2.561 0 0 0 .316.059l.316.039a.651.651 0 0 1 .1.01.7.7 0 0 0 .118.01.449.449 0 0 0 .188 0 .37.37 0 0 1 .207.02.982.982 0 0 0 .227.02.667.667 0 0 0 .247-.039h.138a1 1 0 0 1 .2-.02 1 1 0 0 0 .2-.02.215.215 0 0 1 .109-.01.207.207 0 0 0 .128-.03q.158-.039.336-.069a1.8 1.8 0 0 0 .336-.089 4.877 4.877 0 0 0 .917-.5 1.838 1.838 0 0 0 .622-.779 2.927 2.927 0 0 0 .1-.316l.079-.316a1.561 1.561 0 0 0 .039-.375 1.326 1.326 0 0 0-.039-.355.463.463 0 0 1-.039-.168.334.334 0 0 0-.04-.148 1.726 1.726 0 0 0-.316-.562 2.732 2.732 0 0 0-.474-.424 3.623 3.623 0 0 0-.927-.474 10.367 10.367 0 0 0-1.075-.306q-.562-.128-1.154-.247T885 461.49q-.316-.1-.631-.168a3.262 3.262 0 0 1-.592-.188.157.157 0 0 0-.059-.02.149.149 0 0 1-.059-.02l-.394-.158a2.024 2.024 0 0 1-.375-.2 6.045 6.045 0 0 1-.829-.6 2.245 2.245 0 0 1-.592-.839 1.27 1.27 0 0 1-.138-.385q-.04-.207-.1-.424a.867.867 0 0 0-.01-.138.686.686 0 0 1-.01-.118 1.755 1.755 0 0 1-.02-.6 3.307 3.307 0 0 1 .1-.562q.059-.217.109-.414a2.239 2.239 0 0 1 .128-.375 3.182 3.182 0 0 1 .71-1 6.506 6.506 0 0 1 .967-.74.18.18 0 0 1 .1-.049.177.177 0 0 0 .1-.049 5.558 5.558 0 0 1 1.006-.375q.158-.039.3-.069t.3-.069a1.422 1.422 0 0 1 .345-.04 1.416 1.416 0 0 0 .345-.039.4.4 0 0 1 .178 0c.066.016.121.009.145-.017z" transform="translate(-880.776 -412.486)"/>
            <path id="Path_20" d="M975.172 459.3a1.837 1.837 0 0 1 .039.424 1.577 1.577 0 0 1-.039.4.574.574 0 0 0-.02.257.585.585 0 0 1-.02.256 1.465 1.465 0 0 0-.059.247 1.53 1.53 0 0 1-.059.247q-.04.158-.089.3t-.109.276a.31.31 0 0 0-.049.109.174.174 0 0 1-.049.089 4.772 4.772 0 0 1-.474.71.537.537 0 0 1-.128.158 1.386 1.386 0 0 1-.148.118.446.446 0 0 0-.138.109.573.573 0 0 1-.118.109l-.414.237a1.53 1.53 0 0 1-.513.237l-.592.158a1.729 1.729 0 0 1-.316.049 1.774 1.774 0 0 0-.316.049.382.382 0 0 1-.148.01.28.28 0 0 0-.128.01.444.444 0 0 1-.187 0 .457.457 0 0 0-.187 0h-2.979q-.3 0-.641-.01a.8.8 0 0 0-.523.128.642.642 0 0 0-.207.572q.01.414.01.769v2.9q0 .257.01.641a1.035 1.035 0 0 1-.089.542.335.335 0 0 1-.187.148l-.266.069h-.355q-.3 0-.533-.02a.392.392 0 0 1-.335-.2.58.58 0 0 1-.079-.326V456.7q0-.217-.01-.483a.737.737 0 0 1 .089-.424.581.581 0 0 1 .3-.2.112.112 0 0 1 .079-.01.109.109 0 0 0 .079-.01h4.479q.75 0 1.47.01a4.589 4.589 0 0 1 1.292.187 4.263 4.263 0 0 1 1.44.77 3.491 3.491 0 0 1 .908 1.3 2.182 2.182 0 0 1 .148.454q.049.237.128.493a.585.585 0 0 1 .02.256.573.573 0 0 0 .013.257zm-1.855.71a1.476 1.476 0 0 0 .02-.641 5.9 5.9 0 0 0-.119-.582 2.328 2.328 0 0 0-.523-.878 2.61 2.61 0 0 0-.838-.543 3.228 3.228 0 0 0-1-.217q-.562-.039-1.174-.039h-2.545a.2.2 0 0 1-.089.02.357.357 0 0 0-.109.02.426.426 0 0 0-.316.257 1.32 1.32 0 0 0-.069.523q.01.325.01.6v2.37q0 .3-.01.651a1.019 1.019 0 0 0 .108.552.408.408 0 0 0 .306.188 3.325 3.325 0 0 0 .464.03h2.667q.3 0 .612-.01a2.627 2.627 0 0 0 .552-.069 5.536 5.536 0 0 0 .937-.325 1.7 1.7 0 0 0 .681-.582 2.174 2.174 0 0 0 .247-.493q.089-.256.168-.572a1.178 1.178 0 0 0 .02-.256z" transform="translate(-950.212 -413.931)"/>
            <path id="Path_21" d="M1048.5 468.548q.039.1.1.237a1.457 1.457 0 0 1 .089.286.65.65 0 0 1 0 .276.265.265 0 0 1-.168.187.634.634 0 0 1-.237.039h-.858a1 1 0 0 1-.483-.1.685.685 0 0 1-.286-.414 5.567 5.567 0 0 0-.188-.533q-.217-.513-.395-1.065t-.394-1.085q-.059-.177-.109-.335a2.013 2.013 0 0 0-.118-.3.739.739 0 0 0-.187-.237.9.9 0 0 0-.316-.158.505.505 0 0 0-.227-.03c-.086.007-.175.01-.267.01h-3.729q-.178 0-.395-.01a2.921 2.921 0 0 0-.414.01 2.84 2.84 0 0 0-.365.059.388.388 0 0 0-.247.158 1.238 1.238 0 0 0-.227.444q-.069.247-.168.5-.2.454-.365.947t-.365.947l-.089.266c-.033.098-.069.2-.109.306a2.3 2.3 0 0 1-.128.286.568.568 0 0 1-.148.187.737.737 0 0 1-.424.128q-.266.01-.562.01c-.105 0-.207 0-.306-.01a.427.427 0 0 1-.247-.089.216.216 0 0 1-.109-.178.8.8 0 0 1 .02-.247 1.907 1.907 0 0 1 .079-.257 1.016 1.016 0 0 1 .089-.187q.276-.631.493-1.253t.473-1.253q.178-.434.336-.858t.335-.858q.592-1.421 1.125-2.871t1.125-2.891q.217-.513.4-1.046t.4-1.046a4.965 4.965 0 0 0 .188-.483.713.713 0 0 1 .266-.385.523.523 0 0 1 .257-.118.136.136 0 0 1 .089-.01.131.131 0 0 0 .089-.01q.355 0 .829-.01a1.149 1.149 0 0 1 .691.148.77.77 0 0 1 .247.385 4.966 4.966 0 0 0 .188.483q.2.454.355.908t.355.908q.157.4.306.809t.325.809q.592 1.44 1.135 2.91t1.154 2.91a3.264 3.264 0 0 1 .128.336q.049.158.109.335.217.513.424 1.046t.431 1.057zm-4.222-4.795a.331.331 0 0 0 .227-.2.592.592 0 0 0 .02-.306 1.63 1.63 0 0 0-.1-.336c-.046-.112-.089-.207-.128-.286a.315.315 0 0 1-.04-.138.318.318 0 0 0-.039-.138c-.039-.105-.076-.214-.108-.325a2.818 2.818 0 0 0-.129-.345q-.3-.71-.523-1.45t-.523-1.45a3.831 3.831 0 0 1-.168-.434 2.886 2.886 0 0 0-.168-.414 1.738 1.738 0 0 0-.089-.187.216.216 0 0 0-.207-.089.3.3 0 0 1-.079.059.309.309 0 0 0-.079.059.729.729 0 0 0-.118.207q-.04.109-.079.227a2.831 2.831 0 0 0-.158.434 2.887 2.887 0 0 1-.158.434 15.347 15.347 0 0 0-.582 1.559q-.247.79-.562 1.539c-.026.066-.049.132-.069.2s-.043.132-.069.2l-.118.316a2.9 2.9 0 0 0-.1.316.47.47 0 0 0-.03.217.534.534 0 0 0 .049.2.472.472 0 0 0 .414.168q.315.01.592.01h2.111q.217 0 .533.01a1.3 1.3 0 0 0 .474-.057z" transform="translate(-1009.213 -413.881)"/>
            <path id="Path_22" d="M1126.548 453.7a6.853 6.853 0 0 1 3.246.621 5.013 5.013 0 0 1 2.042 1.825 5.073 5.073 0 0 1 .326.6 5.684 5.684 0 0 1 .247.681 1.979 1.979 0 0 1 .079.266.482.482 0 0 1-.02.306.211.211 0 0 1-.148.148q-.109.03-.227.069h-.2a.47.47 0 0 1-.148.02h-.168a3.922 3.922 0 0 1-.5-.03.423.423 0 0 1-.326-.188 1.6 1.6 0 0 1-.217-.454 1.965 1.965 0 0 0-.217-.473 3.575 3.575 0 0 0-.582-.75 4.776 4.776 0 0 0-.76-.592 1.8 1.8 0 0 0-.523-.237l-.582-.158a3.155 3.155 0 0 0-.493-.089 5.471 5.471 0 0 0-.582-.03 5.752 5.752 0 0 0-.592.03 2.648 2.648 0 0 0-.484.089c-.132.026-.256.053-.375.079a1.888 1.888 0 0 0-.355.118 4.345 4.345 0 0 0-2.387 2.368 3.459 3.459 0 0 0-.227.582q-.089.306-.187.621a.774.774 0 0 0-.039.247.776.776 0 0 1-.04.247.567.567 0 0 0-.02.138.6.6 0 0 1-.02.138 3.3 3.3 0 0 0-.049.444q-.01.227-.01.464 0 .138-.01.286a1.143 1.143 0 0 0 .01.266v.2a.8.8 0 0 1 .03.276.79.79 0 0 0 .03.276.6.6 0 0 1 .03.237.469.469 0 0 0 .03.217q.059.257.108.5a3.951 3.951 0 0 0 .128.483 5.9 5.9 0 0 0 .868 1.687 4.125 4.125 0 0 0 1.4 1.154 3.072 3.072 0 0 0 .563.217q.285.079.621.178a.709.709 0 0 0 .256.03.872.872 0 0 1 .276.03 2.577 2.577 0 0 0 .355.03 1.133 1.133 0 0 0 .375-.03h.138a.435.435 0 0 1 .158-.01.269.269 0 0 0 .158-.03q.2-.039.385-.069a1.453 1.453 0 0 0 .365-.108 3.866 3.866 0 0 0 2.17-2.072 6.28 6.28 0 0 0 .3-.848q.039-.178.069-.365a.911.911 0 0 1 .128-.345.389.389 0 0 1 .316-.178q.217-.02.473-.02h.2a.733.733 0 0 1 .178.02h.138a.711.711 0 0 0 .128.03.188.188 0 0 1 .109.049.342.342 0 0 1 .158.286 1.053 1.053 0 0 1-.04.4q-.118.454-.217.868a3.373 3.373 0 0 1-.3.789q-.158.257-.286.493t-.286.474a4.53 4.53 0 0 1-.878.937 5.165 5.165 0 0 1-1.135.7 3 3 0 0 1-.424.158q-.207.059-.424.138a2.111 2.111 0 0 1-.444.109q-.227.03-.464.069a.364.364 0 0 1-.177.03.419.419 0 0 0-.158.01 1.442 1.442 0 0 1-.237.02 1.823 1.823 0 0 0-.257.02.942.942 0 0 1-.266.01 1.312 1.312 0 0 1-.266-.03.6.6 0 0 0-.187-.01.609.609 0 0 1-.187-.01h-.2a1.721 1.721 0 0 0-.3-.049 1.766 1.766 0 0 1-.3-.049q-.177-.039-.355-.069a1.793 1.793 0 0 1-.335-.089 3.881 3.881 0 0 1-.75-.3 4.984 4.984 0 0 1-2.012-1.519 7.816 7.816 0 0 1-1.223-2.328 3.821 3.821 0 0 1-.128-.493q-.05-.256-.109-.533a.355.355 0 0 1-.029-.178.583.583 0 0 0-.01-.178 2.187 2.187 0 0 1-.05-.375 2.257 2.257 0 0 0-.049-.375v-.375a1.439 1.439 0 0 1 0-.671.22.22 0 0 0 0-.128.149.149 0 0 1 0-.109v-.178q.019-.157.029-.325a1.778 1.778 0 0 1 .049-.326.776.776 0 0 0 .04-.247.958.958 0 0 1 .039-.266q.1-.335.158-.651a2.774 2.774 0 0 1 .178-.592q.1-.256.207-.523a3.006 3.006 0 0 1 .247-.483q.3-.513.592-.927a.606.606 0 0 1 .148-.168.6.6 0 0 0 .148-.168 2.037 2.037 0 0 1 .247-.276q.128-.118.266-.237l.227-.187q.109-.089.247-.187a4.032 4.032 0 0 1 .621-.375q.326-.158.681-.316a2.136 2.136 0 0 1 .463-.148 3.929 3.929 0 0 0 .484-.128c.092-.013.177-.026.256-.04l.237-.039q.158-.019.306-.03c.1-.007.2-.016.306-.03a.129.129 0 0 1 .1 0 .126.126 0 0 0 .104.013z" transform="translate(-1078.76 -412.374)"/>
            <path id="Path_23" d="M1212.782 455.524h8.149q.217 0 .434-.01a.555.555 0 0 1 .355.089.357.357 0 0 1 .1.1l.079.118a1.783 1.783 0 0 1 .04.444 2.045 2.045 0 0 1-.04.464.379.379 0 0 1-.335.306 5.441 5.441 0 0 1-.612.03h-5.288q-.316 0-.74-.01a1.2 1.2 0 0 0-.622.109.462.462 0 0 0-.207.414q-.01.3-.01.612v2.01q0 .217-.01.513a1.935 1.935 0 0 0 .03.473.432.432 0 0 0 .237.316 1.2 1.2 0 0 0 .276.079h.2a.467.467 0 0 0 .168.01 1.69 1.69 0 0 1 .188-.01h4.538q.178 0 .395-.01t.444 0a3.746 3.746 0 0 1 .415.04.818.818 0 0 1 .286.089.315.315 0 0 1 .1.178 1.986 1.986 0 0 1 .059.3 1.808 1.808 0 0 1 .01.325 1.134 1.134 0 0 1-.049.286.372.372 0 0 1-.177.257.185.185 0 0 1-.109.049.774.774 0 0 0-.128.03h-.118a.656.656 0 0 1-.2.01c-.066-.006-.132-.01-.2-.01h-4.893c-.158 0-.313 0-.464-.01a2.209 2.209 0 0 0-.424.02 1.071 1.071 0 0 0-.346.109.436.436 0 0 0-.207.276.718.718 0 0 0-.03.276q.01.158.01.316v2.979q0 .277.02.5a.419.419 0 0 0 .158.326.584.584 0 0 0 .315.109q.178.01.395.01h6.038c.1 0 .21 0 .316-.01a.731.731 0 0 1 .276.03.541.541 0 0 1 .316.217.5.5 0 0 1 .059.2c.013.092.023.187.03.286a1.519 1.519 0 0 1-.01.3c-.014.1-.027.175-.04.227a.511.511 0 0 1-.178.217.541.541 0 0 1-.306.079h-8.375a3.257 3.257 0 0 1-.474-.03.4.4 0 0 1-.3-.188.538.538 0 0 1-.079-.306v-13.041a.43.43 0 0 1 .079-.276.457.457 0 0 1 .3-.2.112.112 0 0 1 .079-.01.11.11 0 0 0 .077-.007z" transform="translate(-1154.951 -413.88)"/>
        </g>
    </g>
</svg>
