<?xml version="1.0" encoding="UTF-8"?>
<svg width="43px" height="28px" viewBox="0 0 43 28" version="1.1" xmlns="http://www.w3.org/2000/svg" xmlns:xlink="http://www.w3.org/1999/xlink">
    <title>fillPattern</title>
    <defs>
        <rect id="path-1" x="0" y="0" width="43" height="28"></rect>
    </defs>
    <g id="fillPattern" stroke="none" stroke-width="1" fill="none" fill-rule="evenodd">
        <g id="Group">
            <mask id="mask-2" fill="white">
                <use xlink:href="#path-1"></use>
            </mask>
            <rect stroke="#5B5B5B" stroke-width="2" x="1" y="1" width="41" height="26"></rect>
            <g mask="url(#mask-2)" id="Path" stroke="#5B5B5B" stroke-width="1.5">
                <g transform="translate(-35, 0)">
                    <line x1="8" y1="51" x2="52" y2="-9.89149157e-08"></line>
                    <line x1="16" y1="51" x2="60" y2="-9.89149157e-08"></line>
                    <line x1="25" y1="51" x2="69" y2="-9.89149157e-08"></line>
                    <line x1="33" y1="51" x2="77" y2="-9.89149157e-08"></line>
                    <line x1="41" y1="51" x2="85" y2="-9.89149157e-08"></line>
                    <line x1="49" y1="51" x2="93" y2="-9.89149157e-08"></line>
                    <line x1="57" y1="51" x2="101" y2="-9.89149157e-08"></line>
                    <line x1="0" y1="51" x2="44" y2="-9.89149157e-08"></line>
                    <line x1="73" y1="51" x2="117" y2="-9.89149157e-08"></line>
                    <line x1="65" y1="51" x2="109" y2="-9.89149157e-08"></line>
                </g>
            </g>
        </g>
    </g>
</svg>